<?xml version="1.0" encoding="UTF-8"?>
<svg width="512" height="512" viewBox="0 0 512 512" fill="none" xmlns="http://www.w3.org/2000/svg">
    <rect width="512" height="512" rx="128" fill="#4F46E5"/>
    <path d="M256 128C238.327 128 224 142.327 224 160V224H160C142.327 224 128 238.327 128 256C128 273.673 142.327 288 160 288H224V352C224 369.673 238.327 384 256 384C273.673 384 288 369.673 288 352V288H352C369.673 288 384 273.673 384 256C384 238.327 369.673 224 352 224H288V160C288 142.327 273.673 128 256 128Z" fill="white"/>
</svg> 